<mxfile host="app.diagrams.net" modified="2022-08-19T16:38:52.623Z" agent="5.0 (Macintosh; Intel Mac OS X 10_15_7) AppleWebKit/537.36 (KHTML, like Gecko) Chrome/104.0.0.0 Safari/537.36" etag="GEHbmiKv9u9osF8ht6QI" version="20.2.5" type="github">
  <diagram id="N2ZHCJXJoo7ibWMzLnd0" name="Page-1">
    <mxGraphModel dx="1018" dy="632" grid="1" gridSize="10" guides="1" tooltips="1" connect="1" arrows="1" fold="1" page="1" pageScale="1" pageWidth="850" pageHeight="1100" math="0" shadow="0">
      <root>
        <mxCell id="0" />
        <mxCell id="1" parent="0" />
        <mxCell id="B-9okw8v_g9EPxzvua41-1" value="" style="rounded=0;whiteSpace=wrap;html=1;" parent="1" vertex="1">
          <mxGeometry x="220" y="60" width="280" height="190" as="geometry" />
        </mxCell>
        <mxCell id="B-9okw8v_g9EPxzvua41-2" value="" style="rounded=0;whiteSpace=wrap;html=1;" parent="1" vertex="1">
          <mxGeometry x="220" y="350" width="280" height="180" as="geometry" />
        </mxCell>
        <mxCell id="B-9okw8v_g9EPxzvua41-3" value="&lt;font style=&quot;font-size: 16px;&quot;&gt;this.state.secretStuff&lt;/font&gt;" style="text;html=1;strokeColor=none;fillColor=none;align=center;verticalAlign=middle;whiteSpace=wrap;rounded=0;" parent="1" vertex="1">
          <mxGeometry x="290" y="130" width="140" height="30" as="geometry" />
        </mxCell>
        <mxCell id="B-9okw8v_g9EPxzvua41-5" value="this.props.secretStuff" style="text;html=1;strokeColor=none;fillColor=none;align=center;verticalAlign=middle;whiteSpace=wrap;rounded=0;fontSize=16;" parent="1" vertex="1">
          <mxGeometry x="305" y="425" width="110" height="30" as="geometry" />
        </mxCell>
        <mxCell id="TM9Yja-oPKs3DIOY8e2G-1" value="this.updateSecret = (newSecret)=&amp;gt;{...}&amp;nbsp;" style="text;html=1;strokeColor=none;fillColor=none;align=center;verticalAlign=middle;whiteSpace=wrap;rounded=0;fontSize=16;" vertex="1" parent="1">
          <mxGeometry x="240" y="180" width="240" height="60" as="geometry" />
        </mxCell>
        <mxCell id="TM9Yja-oPKs3DIOY8e2G-2" value="Parent Component" style="text;html=1;strokeColor=none;fillColor=none;align=center;verticalAlign=middle;whiteSpace=wrap;rounded=0;fontStyle=1;fontSize=20;" vertex="1" parent="1">
          <mxGeometry x="305" y="70" width="110" height="30" as="geometry" />
        </mxCell>
        <mxCell id="TM9Yja-oPKs3DIOY8e2G-8" value="Child Component" style="text;html=1;strokeColor=none;fillColor=none;align=center;verticalAlign=middle;whiteSpace=wrap;rounded=0;fontStyle=1;fontSize=20;" vertex="1" parent="1">
          <mxGeometry x="305" y="363" width="110" height="30" as="geometry" />
        </mxCell>
        <mxCell id="TM9Yja-oPKs3DIOY8e2G-10" value="this.props.updateSecretStuff()" style="text;html=1;strokeColor=none;fillColor=none;align=center;verticalAlign=middle;whiteSpace=wrap;rounded=0;fontSize=16;" vertex="1" parent="1">
          <mxGeometry x="300" y="470" width="120" height="30" as="geometry" />
        </mxCell>
        <mxCell id="TM9Yja-oPKs3DIOY8e2G-11" value="" style="shape=flexArrow;endArrow=classic;html=1;rounded=0;fontSize=20;exitX=1;exitY=0.75;exitDx=0;exitDy=0;" edge="1" parent="1" source="B-9okw8v_g9EPxzvua41-2">
          <mxGeometry width="50" height="50" relative="1" as="geometry">
            <mxPoint x="470" y="485" as="sourcePoint" />
            <mxPoint x="450" y="145" as="targetPoint" />
            <Array as="points">
              <mxPoint x="560" y="485" />
              <mxPoint x="560" y="145" />
            </Array>
          </mxGeometry>
        </mxCell>
        <mxCell id="TM9Yja-oPKs3DIOY8e2G-13" value="" style="endArrow=classic;html=1;rounded=0;fontSize=16;exitX=0.5;exitY=1;exitDx=0;exitDy=0;" edge="1" parent="1" source="B-9okw8v_g9EPxzvua41-3">
          <mxGeometry width="50" height="50" relative="1" as="geometry">
            <mxPoint x="400" y="340" as="sourcePoint" />
            <mxPoint x="360" y="430" as="targetPoint" />
          </mxGeometry>
        </mxCell>
      </root>
    </mxGraphModel>
  </diagram>
</mxfile>
